<svg xmlns="http://www.w3.org/2000/svg" version="1.1" xmlns:xlink="http://www.w3.org/1999/xlink" xmlns:svgjs="http://svgjs.com/svgjs" width="960" height="560" preserveAspectRatio="none" viewBox="0 0 960 560">
    <g mask="url(&quot;#SvgjsMask1048&quot;)" fill="none">
        <path d="M584.48 614.65C670.24 534.87 618.2 183.21 758.21 179.54 898.22 175.87 1002.03 399.08 1105.66 409.14" stroke="rgba(255, 0, 0, 0.58)" stroke-width="2"></path>
        <path d="M629.97 578.85C713.96 487.73 644.66 127.63 793.81 111.03 942.96 94.43 1033.99 232.22 1121.48 234.23" stroke="rgba(255, 0, 0, 0.58)" stroke-width="2"></path>
        <path d="M304.01 640.01C391.39 621.21 425.78 395.23 562.29 392.79 698.8 390.35 691.43 462.79 820.57 462.79 949.71 462.79 1011.95 393.41 1078.85 392.79" stroke="rgba(255, 0, 0, 0.58)" stroke-width="2"></path>
        <path d="M566.69 598.23C650.35 503.28 586.84 129.79 728.19 118.49 869.54 107.19 958.37 296.91 1051.18 303.29" stroke="rgba(255, 0, 0, 0.58)" stroke-width="2"></path>
        <path d="M82.64 564.72C168.33 560.07 233.26 406.43 387.09 406.2 540.92 405.97 539.31 476.2 691.54 476.2 843.76 476.2 917.89 406.65 995.99 406.2" stroke="rgba(255, 0, 0, 0.58)" stroke-width="2"></path>
    </g>
    <defs>
        <mask id="SvgjsMask1048">
            <rect width="960" height="560" fill="#ffffff"></rect>
        </mask>
    </defs>
</svg>