<svg xmlns="http://www.w3.org/2000/svg" version="1.1" xmlns:xlink="http://www.w3.org/1999/xlink" xmlns:svgjs="http://svgjs.com/svgjs" 
    width="1414" height="560" preserveAspectRatio="none" viewBox="0 50 960 380">
    <g mask="url(&quot;#SvgjsMask2200&quot;)" fill="none">
        <rect width="1414" height="560" x="0" y="0" fill="url(#SvgjsLinearGradient2201)"></rect>
        <path d="M-110.1 374.23L-110.1 374.23" stroke="#132e65" stroke-width="1.5"></path>
        <path d="M-110.1 374.23L82.83 397.6" stroke="#132e65" stroke-width="1.5"></path>
        <path d="M-110.1 374.23L65.94 509.47" stroke="#132e65" stroke-width="1.5"></path>
        <path d="M-110.1 374.23L-90.45 664.41" stroke="#132e65" stroke-width="1.5"></path>
        <path d="M-110.1 374.23L86.77 694.03" stroke="#132e65" stroke-width="1.5"></path>
        <path d="M-90.45 664.41L-90.45 664.41" stroke="#132e65" stroke-width="1.5"></path>
        <path d="M-90.45 664.41L86.77 694.03" stroke="#132e65" stroke-width="1.5"></path>
        <path d="M-90.45 664.41L65.94 509.47" stroke="#132e65" stroke-width="1.5"></path>
        <path d="M-90.45 664.41L201.2 657.02" stroke="#132e65" stroke-width="1.5"></path>
        <path d="M82.83 397.6L82.83 397.6" stroke="#132e65" stroke-width="1.5"></path>
        <path d="M82.83 397.6L65.94 509.47" stroke="#132e65" stroke-width="1.5"></path>
        <path d="M82.83 397.6L353.35 355.95" stroke="#132e65" stroke-width="1.5"></path>
        <path d="M82.83 397.6L201.2 657.02" stroke="#132e65" stroke-width="1.5"></path>
        <path d="M65.94 509.47L65.94 509.47" stroke="#132e65" stroke-width="1.5"></path>
        <path d="M65.94 509.47L86.77 694.03" stroke="#132e65" stroke-width="1.5"></path>
        <path d="M65.94 509.47L201.2 657.02" stroke="#132e65" stroke-width="1.5"></path>
        <path d="M86.77 694.03L86.77 694.03" stroke="#132e65" stroke-width="1.5"></path>
        <path d="M86.77 694.03L201.2 657.02" stroke="#132e65" stroke-width="1.5"></path>
        <path d="M201.2 657.02L201.2 657.02" stroke="#132e65" stroke-width="1.5"></path>
        <path d="M201.2 657.02L354.26 642.39" stroke="#132e65" stroke-width="1.5"></path>
        <path d="M353.35 355.95L353.35 355.95" stroke="#132e65" stroke-width="1.5"></path>
        <path d="M353.35 355.95L559.08 399.15" stroke="#132e65" stroke-width="1.5"></path>
        <path d="M353.35 355.95L513.61 526.06" stroke="#132e65" stroke-width="1.5"></path>
        <path d="M354.26 642.39L354.26 642.39" stroke="#132e65" stroke-width="1.5"></path>
        <path d="M354.26 642.39L512.13 691.5" stroke="#132e65" stroke-width="1.5"></path>
        <path d="M354.26 642.39L513.61 526.06" stroke="#132e65" stroke-width="1.5"></path>
        <path d="M354.26 642.39L86.77 694.03" stroke="#132e65" stroke-width="1.5"></path>
        <path d="M559.08 399.15L559.08 399.15" stroke="#132e65" stroke-width="1.5"></path>
        <path d="M559.08 399.15L651.37 495.64" stroke="#132e65" stroke-width="1.5"></path>
        <path d="M559.08 399.15L513.61 526.06" stroke="#132e65" stroke-width="1.5"></path>
        <path d="M559.08 399.15L700.89 407.24" stroke="#132e65" stroke-width="1.5"></path>
        <path d="M559.08 399.15L709.45 228.54" stroke="#132e65" stroke-width="1.5"></path>
        <path d="M559.08 399.15L792.46 372.02" stroke="#132e65" stroke-width="1.5"></path>
        <path d="M513.61 526.06L513.61 526.06" stroke="#132e65" stroke-width="1.5"></path>
        <path d="M513.61 526.06L651.37 495.64" stroke="#132e65" stroke-width="1.5"></path>
        <path d="M512.13 691.5L512.13 691.5" stroke="#132e65" stroke-width="1.5"></path>
        <path d="M512.13 691.5L513.61 526.06" stroke="#132e65" stroke-width="1.5"></path>
        <path d="M512.13 691.5L696.97 710.97" stroke="#132e65" stroke-width="1.5"></path>
        <path d="M512.13 691.5L651.37 495.64" stroke="#132e65" stroke-width="1.5"></path>
        <path d="M512.13 691.5L559.08 399.15" stroke="#132e65" stroke-width="1.5"></path>
        <path d="M709.45 228.54L709.45 228.54" stroke="#132e65" stroke-width="1.5"></path>
        <path d="M709.45 228.54L840.66 237.26" stroke="#132e65" stroke-width="1.5"></path>
        <path d="M709.45 228.54L792.46 372.02" stroke="#132e65" stroke-width="1.5"></path>
        <path d="M709.45 228.54L700.89 407.24" stroke="#132e65" stroke-width="1.5"></path>
        <path d="M700.89 407.24L700.89 407.24" stroke="#132e65" stroke-width="1.5"></path>
        <path d="M700.89 407.24L792.46 372.02" stroke="#132e65" stroke-width="1.5"></path>
        <path d="M700.89 407.24L651.37 495.64" stroke="#132e65" stroke-width="1.5"></path>
        <path d="M700.89 407.24L791.92 553.86" stroke="#132e65" stroke-width="1.5"></path>
        <path d="M651.37 495.64L651.37 495.64" stroke="#132e65" stroke-width="1.5"></path>
        <path d="M696.97 710.97L696.97 710.97" stroke="#132e65" stroke-width="1.5"></path>
        <path d="M696.97 710.97L809.81 653.21" stroke="#132e65" stroke-width="1.5"></path>
        <path d="M696.97 710.97L791.92 553.86" stroke="#132e65" stroke-width="1.5"></path>
        <path d="M696.97 710.97L651.37 495.64" stroke="#132e65" stroke-width="1.5"></path>
        <path d="M840.66 237.26L840.66 237.26" stroke="#132e65" stroke-width="1.5"></path>
        <path d="M840.66 237.26L792.46 372.02" stroke="#132e65" stroke-width="1.5"></path>
        <path d="M840.66 237.26L1009.24 193.47" stroke="#132e65" stroke-width="1.5"></path>
        <path d="M840.66 237.26L950.25 412.26" stroke="#132e65" stroke-width="1.5"></path>
        <path d="M792.46 372.02L792.46 372.02" stroke="#132e65" stroke-width="1.5"></path>
        <path d="M792.46 372.02L950.25 412.26" stroke="#132e65" stroke-width="1.5"></path>
        <path d="M792.46 372.02L791.92 553.86" stroke="#132e65" stroke-width="1.5"></path>
        <path d="M791.92 553.86L791.92 553.86" stroke="#132e65" stroke-width="1.5"></path>
        <path d="M791.92 553.86L809.81 653.21" stroke="#132e65" stroke-width="1.5"></path>
        <path d="M791.92 553.86L651.37 495.64" stroke="#132e65" stroke-width="1.5"></path>
        <path d="M809.81 653.21L809.81 653.21" stroke="#132e65" stroke-width="1.5"></path>
        <path d="M809.81 653.21L994.87 649.66" stroke="#132e65" stroke-width="1.5"></path>
        <path d="M809.81 653.21L651.37 495.64" stroke="#132e65" stroke-width="1.5"></path>
        <path d="M809.81 653.21L1008.13 513.31" stroke="#132e65" stroke-width="1.5"></path>
        <path d="M809.81 653.21L700.89 407.24" stroke="#132e65" stroke-width="1.5"></path>
        <path d="M981.28 52.53L981.28 52.53" stroke="#132e65" stroke-width="1.5"></path>
        <path d="M981.28 52.53L1009.24 193.47" stroke="#132e65" stroke-width="1.5"></path>
        <path d="M981.28 52.53L1156.83 44.25" stroke="#132e65" stroke-width="1.5"></path>
        <path d="M981.28 52.53L840.66 237.26" stroke="#132e65" stroke-width="1.5"></path>
        <path d="M981.28 52.53L1159.82 -107.62" stroke="#132e65" stroke-width="1.5"></path>
        <path d="M981.28 52.53L1274.7 55.87" stroke="#132e65" stroke-width="1.5"></path>
        <path d="M1009.24 193.47L1009.24 193.47" stroke="#132e65" stroke-width="1.5"></path>
        <path d="M1009.24 193.47L1090.32 341.31" stroke="#132e65" stroke-width="1.5"></path>
        <path d="M950.25 412.26L950.25 412.26" stroke="#132e65" stroke-width="1.5"></path>
        <path d="M950.25 412.26L1008.13 513.31" stroke="#132e65" stroke-width="1.5"></path>
        <path d="M950.25 412.26L1090.32 341.31" stroke="#132e65" stroke-width="1.5"></path>
        <path d="M950.25 412.26L1131.7 491.38" stroke="#132e65" stroke-width="1.5"></path>
        <path d="M1008.13 513.31L1008.13 513.31" stroke="#132e65" stroke-width="1.5"></path>
        <path d="M1008.13 513.31L1131.7 491.38" stroke="#132e65" stroke-width="1.5"></path>
        <path d="M994.87 649.66L994.87 649.66" stroke="#132e65" stroke-width="1.5"></path>
        <path d="M994.87 649.66L1008.13 513.31" stroke="#132e65" stroke-width="1.5"></path>
        <path d="M1159.82 -107.62L1159.82 -107.62" stroke="#132e65" stroke-width="1.5"></path>
        <path d="M1159.82 -107.62L1292.15 -86.25" stroke="#132e65" stroke-width="1.5"></path>
        <path d="M1159.82 -107.62L1156.83 44.25" stroke="#132e65" stroke-width="1.5"></path>
        <path d="M1159.82 -107.62L1274.7 55.87" stroke="#132e65" stroke-width="1.5"></path>
        <path d="M1156.83 44.25L1156.83 44.25" stroke="#132e65" stroke-width="1.5"></path>
        <path d="M1156.83 44.25L1274.7 55.87" stroke="#132e65" stroke-width="1.5"></path>
        <path d="M1156.83 44.25L1292.15 -86.25" stroke="#132e65" stroke-width="1.5"></path>
        <path d="M1156.83 44.25L1009.24 193.47" stroke="#132e65" stroke-width="1.5"></path>
        <path d="M1156.83 44.25L1278.57 251.44" stroke="#132e65" stroke-width="1.5"></path>
        <path d="M1090.32 341.31L1090.32 341.31" stroke="#132e65" stroke-width="1.5"></path>
        <path d="M1090.32 341.31L1131.7 491.38" stroke="#132e65" stroke-width="1.5"></path>
        <path d="M1131.7 491.38L1131.7 491.38" stroke="#132e65" stroke-width="1.5"></path>
        <path d="M1131.7 491.38L1275.79 523.68" stroke="#132e65" stroke-width="1.5"></path>
        <path d="M1142.77 702.36L1142.77 702.36" stroke="#132e65" stroke-width="1.5"></path>
        <path d="M1142.77 702.36L994.87 649.66" stroke="#132e65" stroke-width="1.5"></path>
        <path d="M1142.77 702.36L1309.77 670.37" stroke="#132e65" stroke-width="1.5"></path>
        <path d="M1292.15 -86.25L1292.15 -86.25" stroke="#132e65" stroke-width="1.5"></path>
        <path d="M1292.15 -86.25L1423.8 -68.83" stroke="#132e65" stroke-width="1.5"></path>
        <path d="M1292.15 -86.25L1274.7 55.87" stroke="#132e65" stroke-width="1.5"></path>
        <path d="M1274.7 55.87L1274.7 55.87" stroke="#132e65" stroke-width="1.5"></path>
        <path d="M1278.57 251.44L1278.57 251.44" stroke="#132e65" stroke-width="1.5"></path>
        <path d="M1278.57 251.44L1430.12 234.43" stroke="#132e65" stroke-width="1.5"></path>
        <path d="M1278.57 251.44L1263.47 412.21" stroke="#132e65" stroke-width="1.5"></path>
        <path d="M1278.57 251.44L1434.8 368.11" stroke="#132e65" stroke-width="1.5"></path>
        <path d="M1278.57 251.44L1274.7 55.87" stroke="#132e65" stroke-width="1.5"></path>
        <path d="M1278.57 251.44L1090.32 341.31" stroke="#132e65" stroke-width="1.5"></path>
        <path d="M1263.47 412.21L1263.47 412.21" stroke="#132e65" stroke-width="1.5"></path>
        <path d="M1263.47 412.21L1275.79 523.68" stroke="#132e65" stroke-width="1.5"></path>
        <path d="M1263.47 412.21L1131.7 491.38" stroke="#132e65" stroke-width="1.5"></path>
        <path d="M1275.79 523.68L1275.79 523.68" stroke="#132e65" stroke-width="1.5"></path>
        <path d="M1275.79 523.68L1309.77 670.37" stroke="#132e65" stroke-width="1.5"></path>
        <path d="M1309.77 670.37L1309.77 670.37" stroke="#132e65" stroke-width="1.5"></path>
        <path d="M1309.77 670.37L1427.05 664.98" stroke="#132e65" stroke-width="1.5"></path>
        <path d="M1309.77 670.37L1434.64 541.38" stroke="#132e65" stroke-width="1.5"></path>
        <path d="M1309.77 670.37L1131.7 491.38" stroke="#132e65" stroke-width="1.5"></path>
        <path d="M1423.8 -68.83L1423.8 -68.83" stroke="#132e65" stroke-width="1.5"></path>
        <path d="M1423.8 -68.83L1443.86 57.75" stroke="#132e65" stroke-width="1.5"></path>
        <path d="M1443.86 57.75L1443.86 57.75" stroke="#132e65" stroke-width="1.5"></path>
        <path d="M1443.86 57.75L1593.23 109.64" stroke="#132e65" stroke-width="1.5"></path>
        <path d="M1430.12 234.43L1430.12 234.43" stroke="#132e65" stroke-width="1.5"></path>
        <path d="M1430.12 234.43L1434.8 368.11" stroke="#132e65" stroke-width="1.5"></path>
        <path d="M1430.12 234.43L1575.44 200.39" stroke="#132e65" stroke-width="1.5"></path>
        <path d="M1434.8 368.11L1434.8 368.11" stroke="#132e65" stroke-width="1.5"></path>
        <path d="M1434.8 368.11L1545.01 398.6" stroke="#132e65" stroke-width="1.5"></path>
        <path d="M1434.64 541.38L1434.64 541.38" stroke="#132e65" stroke-width="1.5"></path>
        <path d="M1434.64 541.38L1427.05 664.98" stroke="#132e65" stroke-width="1.5"></path>
        <path d="M1427.05 664.98L1427.05 664.98" stroke="#132e65" stroke-width="1.5"></path>
        <path d="M1427.05 664.98L1275.79 523.68" stroke="#132e65" stroke-width="1.5"></path>
        <path d="M1427.05 664.98L1601.83 514.69" stroke="#132e65" stroke-width="1.5"></path>
        <path d="M1583.58 -60.57L1583.58 -60.57" stroke="#132e65" stroke-width="1.5"></path>
        <path d="M1583.58 -60.57L1423.8 -68.83" stroke="#132e65" stroke-width="1.5"></path>
        <path d="M1593.23 109.64L1593.23 109.64" stroke="#132e65" stroke-width="1.5"></path>
        <path d="M1593.23 109.64L1575.44 200.39" stroke="#132e65" stroke-width="1.5"></path>
        <path d="M1593.23 109.64L1583.58 -60.57" stroke="#132e65" stroke-width="1.5"></path>
        <path d="M1593.23 109.64L1430.12 234.43" stroke="#132e65" stroke-width="1.5"></path>
        <path d="M1575.44 200.39L1575.44 200.39" stroke="#132e65" stroke-width="1.5"></path>
        <path d="M1545.01 398.6L1545.01 398.6" stroke="#132e65" stroke-width="1.5"></path>
        <path d="M1545.01 398.6L1601.83 514.69" stroke="#132e65" stroke-width="1.5"></path>
        <path d="M1545.01 398.6L1434.64 541.38" stroke="#132e65" stroke-width="1.5"></path>
        <path d="M1545.01 398.6L1430.12 234.43" stroke="#132e65" stroke-width="1.5"></path>
        <path d="M1601.83 514.69L1601.83 514.69" stroke="#132e65" stroke-width="1.5"></path>
        <path d="M1601.83 514.69L1434.64 541.38" stroke="#132e65" stroke-width="1.5"></path>
        <circle r="5" cx="-110.1" cy="374.23" fill="#132e65"></circle>
        <circle r="5" cx="-90.45" cy="664.41" fill="#132e65"></circle>
        <circle r="5" cx="82.83" cy="397.6" fill="#132e65"></circle>
        <circle r="5" cx="65.94" cy="509.47" fill="#132e65"></circle>
        <circle r="5" cx="86.77" cy="694.03" fill="#132e65"></circle>
        <circle r="5" cx="201.2" cy="657.02" fill="#132e65"></circle>
        <circle r="5" cx="353.35" cy="355.95" fill="#132e65"></circle>
        <circle r="5" cx="354.26" cy="642.39" fill="#132e65"></circle>
        <circle r="5" cx="559.08" cy="399.15" fill="#132e65"></circle>
        <circle r="5" cx="513.61" cy="526.06" fill="#132e65"></circle>
        <circle r="5" cx="512.13" cy="691.5" fill="#132e65"></circle>
        <circle r="5" cx="709.45" cy="228.54" fill="#132e65"></circle>
        <circle r="5" cx="700.89" cy="407.24" fill="#132e65"></circle>
        <circle r="5" cx="651.37" cy="495.64" fill="#132e65"></circle>
        <circle r="5" cx="696.97" cy="710.97" fill="#132e65"></circle>
        <circle r="5" cx="840.66" cy="237.26" fill="#132e65"></circle>
        <circle r="5" cx="792.46" cy="372.02" fill="#132e65"></circle>
        <circle r="5" cx="791.92" cy="553.86" fill="#132e65"></circle>
        <circle r="5" cx="809.81" cy="653.21" fill="#132e65"></circle>
        <circle r="5" cx="981.28" cy="52.53" fill="#132e65"></circle>
        <circle r="5" cx="1009.24" cy="193.47" fill="#132e65"></circle>
        <circle r="5" cx="950.25" cy="412.26" fill="#132e65"></circle>
        <circle r="5" cx="1008.13" cy="513.31" fill="#132e65"></circle>
        <circle r="5" cx="994.87" cy="649.66" fill="#132e65"></circle>
        <circle r="5" cx="1159.82" cy="-107.62" fill="#132e65"></circle>
        <circle r="5" cx="1156.83" cy="44.25" fill="#132e65"></circle>
        <circle r="5" cx="1090.32" cy="341.31" fill="#132e65"></circle>
        <circle r="5" cx="1131.7" cy="491.38" fill="#132e65"></circle>
        <circle r="5" cx="1142.77" cy="702.36" fill="#132e65"></circle>
        <circle r="5" cx="1292.15" cy="-86.25" fill="#132e65"></circle>
        <circle r="5" cx="1274.7" cy="55.87" fill="#132e65"></circle>
        <circle r="5" cx="1278.57" cy="251.44" fill="#132e65"></circle>
        <circle r="5" cx="1263.47" cy="412.21" fill="#132e65"></circle>
        <circle r="5" cx="1275.79" cy="523.68" fill="#132e65"></circle>
        <circle r="5" cx="1309.77" cy="670.37" fill="#132e65"></circle>
        <circle r="5" cx="1423.8" cy="-68.83" fill="#132e65"></circle>
        <circle r="5" cx="1443.86" cy="57.75" fill="#132e65"></circle>
        <circle r="5" cx="1430.12" cy="234.43" fill="#132e65"></circle>
        <circle r="5" cx="1434.8" cy="368.11" fill="#132e65"></circle>
        <circle r="5" cx="1434.64" cy="541.38" fill="#132e65"></circle>
        <circle r="5" cx="1427.05" cy="664.98" fill="#132e65"></circle>
        <circle r="5" cx="1583.58" cy="-60.57" fill="#132e65"></circle>
        <circle r="5" cx="1593.23" cy="109.64" fill="#132e65"></circle>
        <circle r="5" cx="1575.44" cy="200.39" fill="#132e65"></circle>
        <circle r="5" cx="1545.01" cy="398.6" fill="#132e65"></circle>
        <circle r="5" cx="1601.83" cy="514.69" fill="#132e65"></circle>
        <path d="M231.73 660.56L231.73 660.56" stroke="hsl(0, 100%, 65%)" stroke-width="1.5"></path>
        <path d="M231.73 660.56L108.38 637.54" stroke="hsl(0, 100%, 65%)" stroke-width="1.5"></path>
        <path d="M231.73 660.56L249.51 532.97" stroke="hsl(0, 100%, 65%)" stroke-width="1.5"></path>
        <path d="M231.73 660.56L378.16 679.31" stroke="hsl(0, 100%, 65%)" stroke-width="1.5"></path>
        <path d="M231.73 660.56L70.72 552.12" stroke="hsl(0, 100%, 65%)" stroke-width="1.5"></path>
        <path d="M551.01 500.11L551.01 500.11" stroke="hsl(0, 100%, 65%)" stroke-width="1.5"></path>
        <path d="M551.01 500.11L682.95 538.51" stroke="hsl(0, 100%, 65%)" stroke-width="1.5"></path>
        <path d="M551.01 500.11L547.91 648.86" stroke="hsl(0, 100%, 65%)" stroke-width="1.5"></path>
        <path d="M551.01 500.11L358.94 506.66" stroke="hsl(0, 100%, 65%)" stroke-width="1.5"></path>
        <path d="M551.01 500.11L652.14 688.75" stroke="hsl(0, 100%, 65%)" stroke-width="1.5"></path>
        <path d="M551.01 500.11L378.16 679.31" stroke="hsl(0, 100%, 65%)" stroke-width="1.5"></path>
        <path d="M551.01 500.11L809.13 347.33" stroke="hsl(0, 100%, 65%)" stroke-width="1.5"></path>
        <path d="M1151.89 209.6L1151.89 209.6" stroke="hsl(0, 100%, 65%)" stroke-width="1.5"></path>
        <path d="M1151.89 209.6L1116.98 108.37" stroke="hsl(0, 100%, 65%)" stroke-width="1.5"></path>
        <path d="M1151.89 209.6L1309.61 214.09" stroke="hsl(0, 100%, 65%)" stroke-width="1.5"></path>
        <path d="M1151.89 209.6L1281.54 91.21" stroke="hsl(0, 100%, 65%)" stroke-width="1.5"></path>
        <path d="M1151.89 209.6L1098.24 410.08" stroke="hsl(0, 100%, 65%)" stroke-width="1.5"></path>
        <path d="M1151.89 209.6L975.58 350.52" stroke="hsl(0, 100%, 65%)" stroke-width="1.5"></path>
        <path d="M1298.87 -75.92L1298.87 -75.92" stroke="hsl(0, 100%, 65%)" stroke-width="1.5"></path>
        <path d="M1298.87 -75.92L1160.19 -81.57" stroke="hsl(0, 100%, 65%)" stroke-width="1.5"></path>
        <path d="M1298.87 -75.92L1281.54 91.21" stroke="hsl(0, 100%, 65%)" stroke-width="1.5"></path>
        <path d="M1298.87 -75.92L1408.41 83.07" stroke="hsl(0, 100%, 65%)" stroke-width="1.5"></path>
        <path d="M1584.18 638.68L1584.18 638.68" stroke="hsl(0, 100%, 65%)" stroke-width="1.5"></path>
        <path d="M1584.18 638.68L1563.27 522.2" stroke="hsl(0, 100%, 65%)" stroke-width="1.5"></path>
        <path d="M1584.18 638.68L1407.94 659.6" stroke="hsl(0, 100%, 65%)" stroke-width="1.5"></path>
        <path d="M-46.39 504.09L-46.39 504.09" stroke="hsl(0, 100%, 65%)" stroke-width="1.5"></path>
        <path d="M-46.39 504.09L70.72 552.12" stroke="hsl(0, 100%, 65%)" stroke-width="1.5"></path>
        <path d="M-46.39 504.09L-74.7 652.16" stroke="hsl(0, 100%, 65%)" stroke-width="1.5"></path>
        <path d="M-46.39 504.09L108.38 637.54" stroke="hsl(0, 100%, 65%)" stroke-width="1.5"></path>
        <path d="M-46.39 504.09L249.51 532.97" stroke="hsl(0, 100%, 65%)" stroke-width="1.5"></path>
        <path d="M-46.39 504.09L231.73 660.56" stroke="hsl(0, 100%, 65%)" stroke-width="1.5"></path>
        <path d="M-46.39 504.09L358.94 506.66" stroke="hsl(0, 100%, 65%)" stroke-width="1.5"></path>
        <path d="M-74.7 652.16L-74.7 652.16" stroke="hsl(0, 100%, 65%)" stroke-width="1.5"></path>
        <path d="M-74.7 652.16L70.72 552.12" stroke="hsl(0, 100%, 65%)" stroke-width="1.5"></path>
        <path d="M-74.7 652.16L108.38 637.54" stroke="hsl(0, 100%, 65%)" stroke-width="1.5"></path>
        <path d="M-74.7 652.16L231.73 660.56" stroke="hsl(0, 100%, 65%)" stroke-width="1.5"></path>
        <path d="M70.72 552.12L70.72 552.12" stroke="hsl(0, 100%, 65%)" stroke-width="1.5"></path>
        <path d="M70.72 552.12L108.38 637.54" stroke="hsl(0, 100%, 65%)" stroke-width="1.5"></path>
        <path d="M108.38 637.54L108.38 637.54" stroke="hsl(0, 100%, 65%)" stroke-width="1.5"></path>
        <path d="M108.38 637.54L249.51 532.97" stroke="hsl(0, 100%, 65%)" stroke-width="1.5"></path>
        <path d="M249.51 532.97L249.51 532.97" stroke="hsl(0, 100%, 65%)" stroke-width="1.5"></path>
        <path d="M249.51 532.97L358.94 506.66" stroke="hsl(0, 100%, 65%)" stroke-width="1.5"></path>
        <path d="M358.94 506.66L358.94 506.66" stroke="hsl(0, 100%, 65%)" stroke-width="1.5"></path>
        <path d="M358.94 506.66L378.16 679.31" stroke="hsl(0, 100%, 65%)" stroke-width="1.5"></path>
        <path d="M378.16 679.31L378.16 679.31" stroke="hsl(0, 100%, 65%)" stroke-width="1.5"></path>
        <path d="M378.16 679.31L547.91 648.86" stroke="hsl(0, 100%, 65%)" stroke-width="1.5"></path>
        <path d="M547.91 648.86L547.91 648.86" stroke="hsl(0, 100%, 65%)" stroke-width="1.5"></path>
        <path d="M547.91 648.86L652.14 688.75" stroke="hsl(0, 100%, 65%)" stroke-width="1.5"></path>
        <path d="M682.95 538.51L682.95 538.51" stroke="hsl(0, 100%, 65%)" stroke-width="1.5"></path>
        <path d="M682.95 538.51L652.14 688.75" stroke="hsl(0, 100%, 65%)" stroke-width="1.5"></path>
        <path d="M652.14 688.75L652.14 688.75" stroke="hsl(0, 100%, 65%)" stroke-width="1.5"></path>
        <path d="M809.13 347.33L809.13 347.33" stroke="hsl(0, 100%, 65%)" stroke-width="1.5"></path>
        <path d="M809.13 347.33L975.58 350.52" stroke="hsl(0, 100%, 65%)" stroke-width="1.5"></path>
        <path d="M809.13 347.33L859.14 512.09" stroke="hsl(0, 100%, 65%)" stroke-width="1.5"></path>
        <path d="M809.13 347.33L682.95 538.51" stroke="hsl(0, 100%, 65%)" stroke-width="1.5"></path>
        <path d="M859.14 512.09L859.14 512.09" stroke="hsl(0, 100%, 65%)" stroke-width="1.5"></path>
        <path d="M859.14 512.09L1010.28 541.07" stroke="hsl(0, 100%, 65%)" stroke-width="1.5"></path>
        <path d="M840.69 695.65L840.69 695.65" stroke="hsl(0, 100%, 65%)" stroke-width="1.5"></path>
        <path d="M840.69 695.65L947.05 676.66" stroke="hsl(0, 100%, 65%)" stroke-width="1.5"></path>
        <path d="M840.69 695.65L859.14 512.09" stroke="hsl(0, 100%, 65%)" stroke-width="1.5"></path>
        <path d="M840.69 695.65L652.14 688.75" stroke="hsl(0, 100%, 65%)" stroke-width="1.5"></path>
        <path d="M975.58 350.52L975.58 350.52" stroke="hsl(0, 100%, 65%)" stroke-width="1.5"></path>
        <path d="M975.58 350.52L1098.24 410.08" stroke="hsl(0, 100%, 65%)" stroke-width="1.5"></path>
        <path d="M975.58 350.52L1010.28 541.07" stroke="hsl(0, 100%, 65%)" stroke-width="1.5"></path>
        <path d="M975.58 350.52L859.14 512.09" stroke="hsl(0, 100%, 65%)" stroke-width="1.5"></path>
        <path d="M975.58 350.52L1131.02 499.18" stroke="hsl(0, 100%, 65%)" stroke-width="1.5"></path>
        <path d="M1010.28 541.07L1010.28 541.07" stroke="hsl(0, 100%, 65%)" stroke-width="1.5"></path>
        <path d="M1010.28 541.07L1131.02 499.18" stroke="hsl(0, 100%, 65%)" stroke-width="1.5"></path>
        <path d="M1010.28 541.07L947.05 676.66" stroke="hsl(0, 100%, 65%)" stroke-width="1.5"></path>
        <path d="M947.05 676.66L947.05 676.66" stroke="hsl(0, 100%, 65%)" stroke-width="1.5"></path>
        <path d="M947.05 676.66L859.14 512.09" stroke="hsl(0, 100%, 65%)" stroke-width="1.5"></path>
        <path d="M1160.19 -81.57L1160.19 -81.57" stroke="hsl(0, 100%, 65%)" stroke-width="1.5"></path>
        <path d="M1160.19 -81.57L1116.98 108.37" stroke="hsl(0, 100%, 65%)" stroke-width="1.5"></path>
        <path d="M1160.19 -81.57L1281.54 91.21" stroke="hsl(0, 100%, 65%)" stroke-width="1.5"></path>
        <path d="M1116.98 108.37L1116.98 108.37" stroke="hsl(0, 100%, 65%)" stroke-width="1.5"></path>
        <path d="M1116.98 108.37L1281.54 91.21" stroke="hsl(0, 100%, 65%)" stroke-width="1.5"></path>
        <path d="M1116.98 108.37L1309.61 214.09" stroke="hsl(0, 100%, 65%)" stroke-width="1.5"></path>
        <path d="M1116.98 108.37L1298.87 -75.92" stroke="hsl(0, 100%, 65%)" stroke-width="1.5"></path>
        <path d="M1116.98 108.37L975.58 350.52" stroke="hsl(0, 100%, 65%)" stroke-width="1.5"></path>
        <path d="M1098.24 410.08L1098.24 410.08" stroke="hsl(0, 100%, 65%)" stroke-width="1.5"></path>
        <path d="M1098.24 410.08L1131.02 499.18" stroke="hsl(0, 100%, 65%)" stroke-width="1.5"></path>
        <path d="M1098.24 410.08L1010.28 541.07" stroke="hsl(0, 100%, 65%)" stroke-width="1.5"></path>
        <path d="M1098.24 410.08L1290.46 404.25" stroke="hsl(0, 100%, 65%)" stroke-width="1.5"></path>
        <path d="M1131.02 499.18L1131.02 499.18" stroke="hsl(0, 100%, 65%)" stroke-width="1.5"></path>
        <path d="M1131.02 499.18L1151.11 640.35" stroke="hsl(0, 100%, 65%)" stroke-width="1.5"></path>
        <path d="M1131.02 499.18L1310.16 514.3" stroke="hsl(0, 100%, 65%)" stroke-width="1.5"></path>
        <path d="M1131.02 499.18L1290.46 404.25" stroke="hsl(0, 100%, 65%)" stroke-width="1.5"></path>
        <path d="M1151.11 640.35L1151.11 640.35" stroke="hsl(0, 100%, 65%)" stroke-width="1.5"></path>
        <path d="M1151.11 640.35L1281.71 673.87" stroke="hsl(0, 100%, 65%)" stroke-width="1.5"></path>
        <path d="M1151.11 640.35L1010.28 541.07" stroke="hsl(0, 100%, 65%)" stroke-width="1.5"></path>
        <path d="M1151.11 640.35L1310.16 514.3" stroke="hsl(0, 100%, 65%)" stroke-width="1.5"></path>
        <path d="M1151.11 640.35L947.05 676.66" stroke="hsl(0, 100%, 65%)" stroke-width="1.5"></path>
        <path d="M1151.11 640.35L1098.24 410.08" stroke="hsl(0, 100%, 65%)" stroke-width="1.5"></path>
        <path d="M1281.54 91.21L1281.54 91.21" stroke="hsl(0, 100%, 65%)" stroke-width="1.5"></path>
        <path d="M1281.54 91.21L1309.61 214.09" stroke="hsl(0, 100%, 65%)" stroke-width="1.5"></path>
        <path d="M1281.54 91.21L1408.41 83.07" stroke="hsl(0, 100%, 65%)" stroke-width="1.5"></path>
        <path d="M1309.61 214.09L1309.61 214.09" stroke="hsl(0, 100%, 65%)" stroke-width="1.5"></path>
        <path d="M1309.61 214.09L1403.16 237.23" stroke="hsl(0, 100%, 65%)" stroke-width="1.5"></path>
        <path d="M1309.61 214.09L1408.41 83.07" stroke="hsl(0, 100%, 65%)" stroke-width="1.5"></path>
        <path d="M1290.46 404.25L1290.46 404.25" stroke="hsl(0, 100%, 65%)" stroke-width="1.5"></path>
        <path d="M1290.46 404.25L1310.16 514.3" stroke="hsl(0, 100%, 65%)" stroke-width="1.5"></path>
        <path d="M1290.46 404.25L1430.61 369.55" stroke="hsl(0, 100%, 65%)" stroke-width="1.5"></path>
        <path d="M1290.46 404.25L1390.71 537.11" stroke="hsl(0, 100%, 65%)" stroke-width="1.5"></path>
        <path d="M1310.16 514.3L1310.16 514.3" stroke="hsl(0, 100%, 65%)" stroke-width="1.5"></path>
        <path d="M1310.16 514.3L1390.71 537.11" stroke="hsl(0, 100%, 65%)" stroke-width="1.5"></path>
        <path d="M1310.16 514.3L1281.71 673.87" stroke="hsl(0, 100%, 65%)" stroke-width="1.5"></path>
        <path d="M1281.71 673.87L1281.71 673.87" stroke="hsl(0, 100%, 65%)" stroke-width="1.5"></path>
        <path d="M1281.71 673.87L1407.94 659.6" stroke="hsl(0, 100%, 65%)" stroke-width="1.5"></path>
        <path d="M1281.71 673.87L1390.71 537.11" stroke="hsl(0, 100%, 65%)" stroke-width="1.5"></path>
        <path d="M1408.41 83.07L1408.41 83.07" stroke="hsl(0, 100%, 65%)" stroke-width="1.5"></path>
        <path d="M1408.41 83.07L1403.16 237.23" stroke="hsl(0, 100%, 65%)" stroke-width="1.5"></path>
        <path d="M1403.16 237.23L1403.16 237.23" stroke="hsl(0, 100%, 65%)" stroke-width="1.5"></path>
        <path d="M1403.16 237.23L1430.61 369.55" stroke="hsl(0, 100%, 65%)" stroke-width="1.5"></path>
        <path d="M1430.61 369.55L1430.61 369.55" stroke="hsl(0, 100%, 65%)" stroke-width="1.5"></path>
        <path d="M1430.61 369.55L1557.49 360.68" stroke="hsl(0, 100%, 65%)" stroke-width="1.5"></path>
        <path d="M1430.61 369.55L1390.71 537.11" stroke="hsl(0, 100%, 65%)" stroke-width="1.5"></path>
        <path d="M1430.61 369.55L1310.16 514.3" stroke="hsl(0, 100%, 65%)" stroke-width="1.5"></path>
        <path d="M1390.71 537.11L1390.71 537.11" stroke="hsl(0, 100%, 65%)" stroke-width="1.5"></path>
        <path d="M1390.71 537.11L1407.94 659.6" stroke="hsl(0, 100%, 65%)" stroke-width="1.5"></path>
        <path d="M1407.94 659.6L1407.94 659.6" stroke="hsl(0, 100%, 65%)" stroke-width="1.5"></path>
        <path d="M1407.94 659.6L1310.16 514.3" stroke="hsl(0, 100%, 65%)" stroke-width="1.5"></path>
        <path d="M1407.94 659.6L1563.27 522.2" stroke="hsl(0, 100%, 65%)" stroke-width="1.5"></path>
        <path d="M1609.07 -68.24L1609.07 -68.24" stroke="hsl(0, 100%, 65%)" stroke-width="1.5"></path>
        <path d="M1609.07 -68.24L1583.9 58.3" stroke="hsl(0, 100%, 65%)" stroke-width="1.5"></path>
        <path d="M1609.07 -68.24L1408.41 83.07" stroke="hsl(0, 100%, 65%)" stroke-width="1.5"></path>
        <path d="M1583.9 58.3L1583.9 58.3" stroke="hsl(0, 100%, 65%)" stroke-width="1.5"></path>
        <path d="M1583.9 58.3L1408.41 83.07" stroke="hsl(0, 100%, 65%)" stroke-width="1.5"></path>
        <path d="M1583.9 58.3L1587.13 256.61" stroke="hsl(0, 100%, 65%)" stroke-width="1.5"></path>
        <path d="M1583.9 58.3L1403.16 237.23" stroke="hsl(0, 100%, 65%)" stroke-width="1.5"></path>
        <path d="M1587.13 256.61L1587.13 256.61" stroke="hsl(0, 100%, 65%)" stroke-width="1.5"></path>
        <path d="M1587.13 256.61L1557.49 360.68" stroke="hsl(0, 100%, 65%)" stroke-width="1.5"></path>
        <path d="M1587.13 256.61L1403.16 237.23" stroke="hsl(0, 100%, 65%)" stroke-width="1.5"></path>
        <path d="M1587.13 256.61L1430.61 369.55" stroke="hsl(0, 100%, 65%)" stroke-width="1.5"></path>
        <path d="M1557.49 360.68L1557.49 360.68" stroke="hsl(0, 100%, 65%)" stroke-width="1.5"></path>
        <path d="M1557.49 360.68L1563.27 522.2" stroke="hsl(0, 100%, 65%)" stroke-width="1.5"></path>
        <path d="M1557.49 360.68L1403.16 237.23" stroke="hsl(0, 100%, 65%)" stroke-width="1.5"></path>
        <path d="M1563.27 522.2L1563.27 522.2" stroke="hsl(0, 100%, 65%)" stroke-width="1.5"></path>
        <circle r="25" cx="231.73" cy="660.56" fill="url(#SvgjsRadialGradient2202)"></circle>
        <circle r="25" cx="551.01" cy="500.11" fill="url(#SvgjsRadialGradient2202)"></circle>
        <circle r="25" cx="1151.89" cy="209.6" fill="url(#SvgjsRadialGradient2202)"></circle>
        <circle r="25" cx="1298.87" cy="-75.92" fill="url(#SvgjsRadialGradient2202)"></circle>
        <circle r="25" cx="1584.18" cy="638.68" fill="url(#SvgjsRadialGradient2202)"></circle>
        <circle r="5" cx="-46.39" cy="504.09" fill="#ff8080"></circle>
        <circle r="5" cx="-74.7" cy="652.16" fill="#ff8080"></circle>
        <circle r="5" cx="70.72" cy="552.12" fill="#ff8080"></circle>
        <circle r="5" cx="108.38" cy="637.54" fill="#ff8080"></circle>
        <circle r="5" cx="249.51" cy="532.97" fill="#ff8080"></circle>
        <circle r="5" cx="358.94" cy="506.66" fill="#ff8080"></circle>
        <circle r="5" cx="378.16" cy="679.31" fill="#ff8080"></circle>
        <circle r="5" cx="547.91" cy="648.86" fill="#ff8080"></circle>
        <circle r="5" cx="682.95" cy="538.51" fill="#ff8080"></circle>
        <circle r="5" cx="652.14" cy="688.75" fill="#ff8080"></circle>
        <circle r="5" cx="809.13" cy="347.33" fill="#ff8080"></circle>
        <circle r="5" cx="859.14" cy="512.09" fill="#ff8080"></circle>
        <circle r="5" cx="840.69" cy="695.65" fill="#ff8080"></circle>
        <circle r="5" cx="975.58" cy="350.52" fill="#ff8080"></circle>
        <circle r="5" cx="1010.28" cy="541.07" fill="#ff8080"></circle>
        <circle r="5" cx="947.05" cy="676.66" fill="#ff8080"></circle>
        <circle r="5" cx="1160.19" cy="-81.57" fill="#ff8080"></circle>
        <circle r="5" cx="1116.98" cy="108.37" fill="#ff8080"></circle>
        <circle r="5" cx="1098.24" cy="410.08" fill="#ff8080"></circle>
        <circle r="5" cx="1131.02" cy="499.18" fill="#ff8080"></circle>
        <circle r="5" cx="1151.11" cy="640.35" fill="#ff8080"></circle>
        <circle r="5" cx="1281.54" cy="91.21" fill="#ff8080"></circle>
        <circle r="5" cx="1309.61" cy="214.09" fill="#ff8080"></circle>
        <circle r="5" cx="1290.46" cy="404.25" fill="#ff8080"></circle>
        <circle r="5" cx="1310.16" cy="514.3" fill="#ff8080"></circle>
        <circle r="5" cx="1281.71" cy="673.87" fill="#ff8080"></circle>
        <circle r="5" cx="1408.41" cy="83.07" fill="#ff8080"></circle>
        <circle r="5" cx="1403.16" cy="237.23" fill="#ff8080"></circle>
        <circle r="5" cx="1430.61" cy="369.55" fill="#ff8080"></circle>
        <circle r="5" cx="1390.71" cy="537.11" fill="#ff8080"></circle>
        <circle r="5" cx="1407.94" cy="659.6" fill="#ff8080"></circle>
        <circle r="5" cx="1609.07" cy="-68.24" fill="#ff8080"></circle>
        <circle r="5" cx="1583.9" cy="58.3" fill="#ff8080"></circle>
        <circle r="5" cx="1587.13" cy="256.61" fill="#ff8080"></circle>
        <circle r="5" cx="1557.49" cy="360.68" fill="#ff8080"></circle>
        <circle r="5" cx="1563.27" cy="522.2" fill="#ff8080"></circle>
    </g>
    <defs>
        <mask id="SvgjsMask2200">
            <rect width="1414" height="560" fill="#ffffff"></rect>
        </mask>
        <linearGradient x1="15.1%" y1="-38.13%" x2="84.9%" y2="138.13%" gradientUnits="userSpaceOnUse" id="SvgjsLinearGradient2201">
            <stop stop-color="#0e2a47" offset="0"></stop>
            <stop stop-color="rgba(255, 0, 0, 0)" offset="1"></stop>
        </linearGradient>
        <radialGradient id="SvgjsRadialGradient2202">
            <stop stop-color="#ffffff" offset="0.1"></stop>
            <stop stop-color="rgba(255, 0, 0, 1)" offset="0.2"></stop>
            <stop stop-color="rgba(255, 0, 0, 0)" offset="1"></stop>
        </radialGradient>
    </defs>
</svg>